<?xml version="1.0" encoding="UTF-8" standalone="no"?>
<svg
   version="1.0"
   width="182.65001"
   height="59.645084"
   viewBox="0 0 182.65001 59.645084"
   preserveAspectRatio="xMidYMid"
   color-interpolation-filters="sRGB"
   xmlns="http://www.w3.org/2000/svg"
   xmlns:svg="http://www.w3.org/2000/svg">
  <g fill="#44475a">
    <g transform="translate(0,1.8950844)">
      <g
         id="g65">
        <rect
           fill="#44475a"
           fill-opacity="0"
           stroke-width="2"
           x="0"
           y="0"
           width="60"
           height="46.789829" />
        <svg
           x="0"
           y="0"
           width="60"
           height="46.789829"
           style="overflow:visible">
          <svg
             viewBox="0.03128624 0 74.054596 57.75"
             width="100%"
             height="100%">
            <g
               fill-opacity="0.8">
              <path
                 d="m 13.75,57.75 h 39.42 c 2.78,0 5.94,-2.41 5,-5 l -8.51,-25.1 c -0.9,-2.62 -2.27,-5 -5,-5 H 5.2 c -2.77,0 -5.94,2.42 -5,5 l 8.51,25.06 c 0.9,2.63 2.29,5.04 5.04,5.04 z"
                 fill="#ff79c6" />
              <path
                 d="m 19.1,46 h 39.42 c 2.78,0 5.94,-2.42 5,-5 L 55,15.89 c -0.9,-2.62 -2.27,-5 -5,-5 H 10.54 c -2.77,0 -5.93,2.41 -5,5 L 14.06,41 c 0.94,2.57 2.27,5 5.04,5 z"
                 fill="#8be9fd" />
              <path
                 d="m 29.49,35.14 h 39.43 c 2.77,0 5.93,-2.42 5,-5 L 65.4,5 C 64.51,2.38 63.12,0 60.35,0 H 20.93 c -2.77,0 -5.94,2.42 -5,5 l 8.52,25.1 c 0.9,2.62 2.27,5.04 5.04,5.04 z"
                 fill="#bd93f9" />
            </g>
          </svg>
        </svg>
      </g>
    </g>
    <g
       transform="translate(67.000008)"
       id="g83">
        <g>
        <path
            d="m 2.35,-18.76 v -4.12 h 15.3 v 4.12 h -5.49 v 14.64 h 5.49 V 0 H 2.35 V -4.12 H 7.84 V -18.76 Z M 20.72,0 v -22.88 h 7.58 l 1.31,17.19 v 3.34 h 0.78 v -3.34 l 1.31,-17.19 h 7.58 V 0 h -3.92 v -15.29 l 0.39,-5.23 H 34.97 L 33.27,0 H 26.8 l -1.77,-20.52 h -0.78 l 0.39,5.23 V 0 Z M 48.5,-7.45 v -4.12 h 9.8 V 0 h -3.92 v -2.55 h -0.59 q -0.39,1.28 -1.5,2.14 -1.11,0.87 -3.34,0.87 v 0 q -1.56,0 -2.94,-0.59 -1.37,-0.59 -2.38,-1.75 -1.02,-1.16 -1.6,-2.87 -0.59,-1.72 -0.59,-4.01 v 0 -5.36 q 0,-2.22 0.64,-3.94 0.63,-1.71 1.76,-2.89 1.13,-1.17 2.7,-1.78 1.56,-0.6 3.46,-0.6 v 0 q 1.96,0 3.5,0.63 1.53,0.64 2.61,1.77 1.08,1.13 1.64,2.65 0.55,1.52 0.55,3.25 v 0 0.39 h -4.31 v -0.39 q 0,-2.06 -1.07,-3.12 -1.06,-1.07 -2.99,-1.07 v 0 q -1.83,0 -3,1.23 -1.18,1.23 -1.18,4.2 v 0 4.84 q 0,5.29 4.32,5.29 v 0 q 1.92,0 2.92,-1.03 1,-1.03 1,-2.76 v 0 z m 25.42,-15.43 h 4.32 v 14.97 q 0,3.92 -2.08,6.15 Q 74.08,0.46 70,0.46 v 0 q -4.08,0 -6.16,-2.22 -2.08,-2.23 -2.08,-6.15 v 0 -14.97 h 4.32 v 14.97 q 0,2.03 0.95,3.17 0.94,1.15 2.97,1.15 v 0 q 2.03,0 2.97,-1.15 0.95,-1.14 0.95,-3.17 v 0 z m 8.43,4.12 v -4.12 h 15.3 v 4.12 h -5.49 v 14.64 h 5.49 V 0 h -15.3 v -4.12 h 5.49 v -14.64 z"
            transform="translate(-2.3499999,23.33)" />
        </g>
        <g
            fill="#44475a"
            transform="translate(0,26.789999)">
        <path
            d="m 2.68,0 v -22.88 h 14.44 v 4.12 H 6.99 v 5.23 h 9.74 v 4.12 H 6.99 v 5.29 H 17.52 V 0 Z M 21.5,-18.76 v -4.12 h 8.3 q 4.25,0 6.31,1.98 2.06,1.98 2.06,6.13 v 0 6.67 q 0,4.15 -2.06,6.12 Q 34.05,0 29.8,0 v 0 h -8.3 v -4.15 h 2.16 v -14.61 z m 6.47,14.64 h 1.83 q 2.26,0 3.16,-1.06 0.9,-1.06 0.9,-3.32 v 0 -6.27 q 0,-1.96 -0.9,-2.98 -0.9,-1.01 -3.16,-1.01 v 0 h -1.83 z m 14.38,-14.64 v -4.12 h 15.3 v 4.12 h -5.49 v 14.64 h 5.49 V 0 h -15.3 v -4.12 h 5.49 v -14.64 z m 19.41,0 v -4.12 h 16.48 v 4.12 H 72.16 V 0 h -4.32 v -18.76 z m 19.81,9.87 v -5.1 q 0,-4.44 2.24,-6.89 2.24,-2.45 6.19,-2.45 v 0 q 3.95,0 6.19,2.45 2.24,2.45 2.24,6.89 v 0 5.1 q 0,4.58 -2.24,6.96 Q 93.95,0.46 90,0.46 v 0 q -3.95,0 -6.19,-2.39 -2.24,-2.38 -2.24,-6.96 z M 90,-3.46 v 0 q 1.18,0 1.96,-0.38 0.79,-0.38 1.28,-1.06 0.49,-0.69 0.68,-1.64 0.2,-0.94 0.2,-2.09 v 0 -5.62 q 0,-1.08 -0.23,-2.02 -0.23,-0.95 -0.72,-1.64 -0.49,-0.68 -1.27,-1.09 -0.79,-0.41 -1.9,-0.41 v 0 q -1.11,0 -1.9,0.41 -0.78,0.41 -1.27,1.09 -0.49,0.69 -0.72,1.64 -0.23,0.94 -0.23,2.02 v 0 5.62 q 0,1.15 0.2,2.09 0.19,0.95 0.68,1.64 0.49,0.68 1.28,1.06 0.78,0.38 1.96,0.38 z m 27.75,-4.45 V 0 h -4.32 v -6.86 q 0,-0.79 -0.41,-1.28 -0.41,-0.49 -1.35,-0.49 v 0 H 106.7 V 0 h -4.31 v -22.88 h 8.75 q 1.77,0 3.11,0.49 1.34,0.49 2.24,1.36 0.9,0.87 1.37,2.01 0.47,1.14 0.47,2.45 v 0 0.79 q 0,1.4 -0.75,2.63 -0.75,1.22 -2.32,1.88 v 0 0.58 q 1.15,0.13 1.82,0.89 0.67,0.75 0.67,1.89 z M 106.7,-18.76 v 6.01 h 4.12 q 1.57,0 2.38,-0.73 0.82,-0.74 0.82,-2.08 v 0 -0.39 q 0,-1.14 -0.82,-1.97 -0.81,-0.84 -2.38,-0.84 v 0 z"
            transform="translate(-2.6800001,23.33)"
            id="path73" />
        </g>
    </g>
  </g>
</svg>
